<?xml version="1.0" standalone="no"?>
<!DOCTYPE svg PUBLIC "-//W3C//DTD SVG 20010904//EN"
 "http://www.w3.org/TR/2001/REC-SVG-20010904/DTD/svg10.dtd">
<svg version="1.0" xmlns="http://www.w3.org/2000/svg"
 width="260.000000pt" height="260.000000pt" viewBox="0 0 260.000000 260.000000"
 preserveAspectRatio="xMidYMid meet">
<metadata>
Created by potrace 1.11, written by Peter Selinger 2001-2013
</metadata>
<g transform="translate(0.000000,260.000000) scale(0.100000,-0.100000)"
fill="#000000" stroke="none">
<path d="M1180 2514 c-8 -1 -48 -8 -89 -14 -364 -60 -701 -311 -871 -651 -45
-89 -95 -232 -105 -300 -4 -24 -10 -64 -15 -89 -9 -48 -6 -307 4 -350 3 -14 8
-34 10 -45 48 -237 155 -434 331 -611 177 -179 373 -287 616 -340 86 -19 319
-27 399 -14 30 5 71 12 90 15 126 22 303 96 435 184 96 63 271 239 330 331
140 217 204 434 202 683 -2 453 -253 863 -655 1071 -82 42 -205 89 -262 100
-14 2 -47 10 -75 16 -44 11 -305 22 -345 14z"/>
</g>
</svg>
